<svg width="23" height="25" viewBox="0 0 23 25" fill="none" xmlns="http://www.w3.org/2000/svg">
<path d="M21.6764 8.96591C20.8429 8.07801 19.5865 7.56207 17.845 7.38209V6.47019C17.845 4.82638 17.1235 3.24257 15.8546 2.1387C14.5733 1.01082 12.9064 0.482885 11.1773 0.638868C8.20423 0.914835 5.70388 3.68651 5.70388 6.68617V7.38209C3.96233 7.56207 2.70593 8.07801 1.87247 8.96591C0.66583 10.2618 0.703149 11.9896 0.839984 13.1895L1.71076 19.8726C1.97199 22.2124 2.95472 24.6121 8.30376 24.6121H15.245C20.5941 24.6121 21.5769 22.2124 21.8381 19.8847L22.7088 13.1774C22.8457 11.9896 22.8706 10.2618 21.6764 8.96591ZM11.3515 2.30668C12.5954 2.19869 13.7772 2.57065 14.6977 3.37455C15.6059 4.16646 16.1158 5.29433 16.1158 6.47019V7.3101H7.43298V6.68617C7.43298 4.55041 9.26161 2.49866 11.3515 2.30668Z" fill="#E47537"/>
</svg>
